<?xml version="1.0" encoding="UTF-8"?>
<svg width="180px" height="28px" viewBox="0 0 180 28" version="1.1" xmlns="http://www.w3.org/2000/svg" xmlns:xlink="http://www.w3.org/1999/xlink">
    <!-- Generator: Sketch 46.2 (44496) - http://www.bohemiancoding.com/sketch -->
    <title>logo</title>
    <desc>Created with Sketch.</desc>
    <defs></defs>
    <g id="Page-1" stroke="none" stroke-width="1" fill="none" fill-rule="evenodd">
        <g id="option-1-2" transform="translate(-29.000000, -63.000000)" fill-rule="nonzero">
            <g id="logo" transform="translate(29.000000, 63.000000)">
                <polygon id="path4411" fill="#000000" points="96.5144551 20.0841398 100.137162 20.0841398 100.044272 10.757993 113.536733 27.7143811 113.494788 7.69262606 109.927816 7.69262606 110.020706 17.1116628 96.5198799 0.11029945"></polygon>
                <path d="M0.735393303,20.1213239 L11.9379162,20.1213239 C13.2569529,20.1213239 13.8142924,20.0841679 14.5202557,19.935544 C15.8764483,19.6754523 16.9168153,18.5236174 17.1211731,17.0373789 C17.232641,16.3314156 17.3069529,15.0495349 17.3069529,13.934856 C17.3069529,13.3403606 17.269797,12.4857734 17.232641,11.909856 C17.1025951,10.3307275 16.8239254,9.55045229 16.1365401,8.88164495 C15.2819529,8.0270578 14.0558061,7.72981009 11.4363107,7.72981009 L0.735393303,7.72981009 L0.735393303,20.1213239 Z M4.50672358,17.1674248 L4.50672358,10.813755 L10.8975493,10.813755 C13.0711731,10.813755 13.5170447,11.3525165 13.5170447,13.9534339 C13.5170447,16.0899018 13.2755309,16.7401312 12.3652098,17.0188009 C11.9193383,17.1674248 11.8450263,17.1674248 10.8232373,17.1674248 L4.50672358,17.1674248 L4.50672358,17.1674248 Z" id="path4417" fill="#000000"></path>
                <path d="M20.2930704,20.1213239 L24.0458227,20.1213239 L24.0458227,17.0002229 L29.823575,17.0002229 C30.8453639,17.0002229 31.1426117,17.0373789 31.4398594,17.2417367 C31.774263,17.4832505 31.9043089,17.8733881 31.9043089,18.5793514 L31.9043089,20.1213239 L35.7313731,20.1213239 L35.7313731,18.1706358 C35.7313731,17.1116908 35.5827493,16.5543514 35.2111896,16.1270578 C34.83963,15.6811862 34.3566025,15.5325624 33.0561438,15.4582505 C32.9632539,15.4582505 32.7217401,15.4396725 32.4430704,15.4210945 C34.1150887,15.1795807 34.6910061,14.9938009 35.1182997,14.5479294 C35.6570612,13.9720119 35.898575,13.0802688 35.898575,11.7426541 C35.898575,9.81054404 35.3969694,8.67728716 34.3194465,8.17568165 C33.5949052,7.84127798 32.7588961,7.72981009 30.9754098,7.72981009 L20.2930704,7.72981009 L20.2930704,20.1213239 L20.2930704,20.1213239 Z M24.0458227,13.9720119 L24.0458227,10.7765991 L30.0650887,10.7765991 C31.1983456,10.7765991 31.5141713,10.832333 31.792841,11.1295807 C32.0343548,11.3896725 32.1086667,11.7240761 32.1086667,12.5229294 C32.1086667,13.7490761 31.755685,13.9720119 29.9350428,13.9720119 L24.0458227,13.9720119 Z" id="path4419" fill="#000000"></path>
                <path d="M37.9653795,20.1213239 L42.2383153,20.1213239 L43.4273061,17.910544 L51.4158383,17.910544 L52.641985,20.1213239 L56.766297,20.1213239 L49.9853337,7.72981009 L44.9321227,7.72981009 L37.9653795,20.1213239 L37.9653795,20.1213239 Z M44.7834988,15.3282046 L47.4215722,10.3864615 L50.0968016,15.3282046 L44.7834988,15.3282046 Z" id="path4421" fill="#000000"></path>
                <path d="M74.2943337,11.9284339 C74.3129117,9.32751651 73.6998383,8.36146147 71.7863061,7.87843394 C71.0060309,7.69265413 69.928508,7.63692018 66.5473153,7.63692018 C64.1879117,7.63692018 62.6830951,7.69265413 61.828508,7.80412202 C60.2308016,8.0270578 59.3576364,8.5286633 58.800297,9.49471835 C58.3172694,10.3678835 58.1686456,11.4268284 58.1686456,14.0834798 C58.1686456,16.3871495 58.2615355,17.2603147 58.6330951,18.0963239 C59.0603887,19.1181128 59.8592419,19.6940303 61.2154346,19.991278 C61.9957098,20.1584798 63.0918107,20.2142138 65.9342419,20.2142138 C69.5941043,20.2142138 70.7273612,20.1956358 71.1174988,20.1584798 C72.6780493,19.991278 73.5512144,19.4339385 73.978508,18.2821037 C74.2200217,17.6132963 74.2943337,16.888755 74.2943337,14.8451771 L74.2943337,13.1360028 L65.841352,13.1360028 L65.841352,15.4396725 L70.6158933,15.4396725 L70.6158933,15.6440303 C70.6158933,15.9784339 70.6158933,16.0341679 70.5973153,16.1827917 C70.5415814,16.7958651 70.1700217,17.1488468 69.4269025,17.2788927 C68.9810309,17.3532046 68.9810309,17.3532046 67.0117649,17.3532046 C63.7791961,17.3532046 63.7048841,17.3346266 63.1847006,17.1860028 C62.2186456,16.888755 61.9585539,16.2756817 61.9585539,14.2321037 C61.9585539,13.4332505 61.9957098,12.2999936 62.0514438,11.9655899 C62.1443337,11.1110028 62.5158933,10.7394431 63.3704805,10.6093972 C63.6491502,10.5722413 65.1911227,10.5350853 66.7516731,10.5350853 L68.0892878,10.5536633 L69.0367649,10.5536633 C70.1328658,10.5536633 70.5601594,10.9252229 70.5973153,11.9284339 L74.2943337,11.9284339 L74.2943337,11.9284339 Z" id="path4423" fill="#000000"></path>
                <path d="M85.2112181,7.59976422 C81.9414933,7.59976422 80.8082364,7.67407615 79.7678694,7.97132385 C78.3745208,8.38003945 77.6499795,9.08600275 77.2969979,10.4050394 C77.0740621,11.2410486 77.0369061,11.7612321 77.0369061,13.8419661 C77.0369061,16.5543514 77.148374,17.4646725 77.6314016,18.3749936 C78.0958511,19.2853147 78.8947043,19.8054982 80.269475,20.0470119 C81.0125942,20.1956358 82.5174107,20.2513697 85.4713098,20.2513697 C86.6788786,20.2513697 88.332319,20.2327917 89.0011263,20.1956358 C90.8031906,20.1213239 91.8435575,19.8240761 92.5866768,19.1924248 C93.6456217,18.3192596 93.9614474,17.1116908 93.9614474,14.1206358 C93.9614474,12.6158193 93.9242915,11.6126083 93.8499795,11.1110028 C93.5898878,9.12315872 92.6609887,8.13852569 90.7474566,7.78554404 C89.8742915,7.63692018 88.7781906,7.59976422 85.2112181,7.59976422 L85.2112181,7.59976422 Z M85.5084658,10.6279752 C90.1529612,10.6279752 90.2086951,10.6651312 90.2086951,13.7862321 C90.2086951,15.4396725 90.1158052,16.0713239 89.7628236,16.5171954 C89.33553,17.1116908 88.6667227,17.2231587 85.4155759,17.2231587 C82.5731447,17.2231587 81.9600713,17.1488468 81.4584658,16.7401312 C80.9940162,16.3499936 80.8453924,15.6811862 80.8453924,13.860544 C80.8453924,12.0770578 80.9940162,11.4639844 81.4956217,11.0738468 C81.9786493,10.7208651 82.7403465,10.6279752 85.5084658,10.6279752 L85.5084658,10.6279752 Z" id="path4425" fill="#000000"></path>
                <path d="M175.840615,15.4582505 C175.840615,16.3499936 175.636258,16.7401312 175.097496,16.963067 C174.577313,17.1860028 174.168597,17.2045807 171.363322,17.2045807 C167.740615,17.2045807 167.461946,16.981645 167.461946,14.0091679 C167.461946,12.0027459 167.554836,11.5011404 168.000707,11.0924248 C168.465157,10.6837092 169.022496,10.6093972 172.106441,10.6093972 C175.376166,10.6093972 175.654836,10.7208651 175.729147,12.0770578 L179.333276,12.0770578 L179.333276,11.6683422 C179.333276,9.8477 178.868826,8.75159908 177.865615,8.24999358 C176.80667,7.72981009 175.803459,7.63692018 171.177542,7.63692018 C167.703459,7.63692018 166.514469,7.80412202 165.39979,8.45435138 C164.099331,9.19747064 163.727771,10.3678835 163.727771,13.6376083 C163.727771,17.3160486 164.080753,18.6165073 165.3069,19.3967826 C166.310111,20.0470119 167.461946,20.2142138 171.028918,20.2142138 C173.49979,20.2142138 174.986028,20.1956358 175.747725,20.1213239 C177.679836,19.991278 178.683047,19.4896725 179.166074,18.4307275 C179.426166,17.8733881 179.4819,17.2603147 179.500478,15.4582505 L175.840615,15.4582505 L175.840615,15.4582505 Z" id="path4429" fill="#000000" transform="translate(171.614124, 13.925567) rotate(180.000000) translate(-171.614124, -13.925567) "></path>
                <polygon id="path4431" fill="#000000" transform="translate(152.817278, 13.925567) rotate(180.000000) translate(-152.817278, -13.925567) " points="144.754434 20.1213239 148.525764 20.1213239 148.525764 15.3839385 157.108791 15.3839385 157.108791 20.1213239 160.880122 20.1213239 160.880122 7.72981009 157.108791 7.72981009 157.108791 12.3185716 148.525764 12.3185716 148.525764 7.72981009 144.754434 7.72981009"></polygon>
                <path d="M123.790048,20.1213239 L128.062984,20.1213239 L129.251975,17.910544 L137.240507,17.910544 L138.466654,20.1213239 L142.590966,20.1213239 L135.810002,7.72981009 L130.756791,7.72981009 L123.790048,20.1213239 L123.790048,20.1213239 Z M130.608168,15.3282046 L133.246241,10.3864615 L135.92147,15.3282046 L130.608168,15.3282046 Z" id="path4433" fill="#000000" transform="translate(133.190507, 13.925567) rotate(180.000000) translate(-133.190507, -13.925567) "></path>
                <polygon id="path4435" fill="#000000" transform="translate(120.169373, 13.925567) rotate(180.000000) translate(-120.169373, -13.925567) " points="118.283708 20.1213239 122.055038 20.1213239 122.055038 7.72981009 118.283708 7.72981009"></polygon>
                <polygon id="path4413" fill="#C91111" points="96.514683 6.30426789 96.5349124 0.129524771 113.484802 21.4500046 113.554903 27.7408477"></polygon>
            </g>
        </g>
    </g>
</svg>